<svg xml:space="preserve" style="enable-background:new 0 0 792 612;" viewBox="0 150 792 300" y="0px" x="0px" xmlns:xlink="http://www.w3.org/1999/xlink" xmlns="http://www.w3.org/2000/svg" id="Layer_1" version="1.1">
<g>
	<g>
		<path d="M164.34,297.97l-54.97-96.3h-31v135.29h25.73v-96.3l55.17,96.3h30.99V201.66h-25.92V297.97z M206.9,336.95h25.73V201.66
			H206.9V336.95z M666.75,201.66l-29.43,57.9l-29.24-57.9h-40.34v96.3l-54.97-96.3h-31v94.39l-32.91-94.39h-32.56l-34.1,97.79
			v-97.79h-38.4l-28.27,101.37l-28.26-101.37h-38.21v135.29h25.34v-99.22l27.48,99.22h27.49l27.49-99.22v99.22h39.55l9.17-27.09h54
			l9.16,27.09h38.76v-96.3l55.17,96.3h30.99v-108.4l30.79,56.55v51.85h25.93V285.1l45.42-83.44H666.75z M413.58,285.88l18.91-55.56
			l18.91,55.56H413.58z"></path>
	</g>
</g>
<g>
	<path d="M249.07,373.44h6.37l14.71,19.33v-19.33h6.82v31.4h-5.88l-15.21-19.96v19.96h-6.82V373.44z"></path>
	<path d="M284.51,373.44h23.64v6.15h-16.82v6.37h14.8v6.15h-14.8v6.59h17.05v6.15h-23.86V373.44z"></path>
	<path d="M312.14,373.44h7.4l6.51,21.26l7.04-21.35h5.92l7.04,21.35l6.5-21.26h7.22l-10.72,31.62h-6.01l-7.09-20.55l-7.09,20.55
		h-6.01L312.14,373.44z"></path>
	<path d="M387.19,392.46l-12.07-19.02h8.07l7.49,12.6l7.63-12.6h7.85l-12.06,18.88v12.52h-6.91V392.46z"></path>
	<path d="M423.03,405.38c-2.42,0-4.65-0.43-6.68-1.28c-2.04-0.85-3.79-2-5.27-3.45c-1.48-1.45-2.63-3.16-3.45-5.11
		c-0.82-1.96-1.23-4.06-1.23-6.3v-0.09c0-2.24,0.42-4.34,1.25-6.3c0.84-1.96,2-3.68,3.48-5.16c1.48-1.48,3.25-2.65,5.29-3.5
		c2.05-0.85,4.28-1.28,6.71-1.28c2.42,0,4.65,0.42,6.68,1.28c2.03,0.85,3.79,2,5.27,3.46c1.48,1.45,2.63,3.15,3.46,5.11
		c0.82,1.96,1.23,4.06,1.23,6.3v0.09c0,2.24-0.42,4.35-1.26,6.31c-0.84,1.96-2,3.68-3.48,5.16c-1.48,1.48-3.25,2.65-5.29,3.5
		C427.69,404.95,425.45,405.38,423.03,405.38z M423.12,399.01c1.4,0,2.68-0.25,3.83-0.76c1.15-0.51,2.14-1.21,2.96-2.11
		c0.82-0.9,1.47-1.94,1.93-3.12c0.46-1.18,0.7-2.45,0.7-3.79v-0.09c0-1.35-0.23-2.61-0.7-3.81c-0.46-1.2-1.12-2.24-1.97-3.14
		c-0.85-0.9-1.86-1.61-3-2.13c-1.15-0.53-2.43-0.79-3.84-0.79c-1.38,0-2.64,0.25-3.81,0.76c-1.16,0.51-2.16,1.21-2.98,2.11
		c-0.82,0.9-1.46,1.94-1.92,3.12c-0.47,1.18-0.7,2.44-0.7,3.79v0.09c0,1.35,0.23,2.62,0.7,3.82c0.46,1.2,1.12,2.24,1.97,3.14
		c0.85,0.9,1.86,1.61,3.03,2.13C420.47,398.74,421.74,399.01,423.12,399.01z"></path>
	<path d="M445.91,373.44h14.35c3.98,0,7.03,1.06,9.15,3.18c1.79,1.8,2.69,4.19,2.69,7.18v0.09c0,2.54-0.62,4.62-1.86,6.21
		c-1.24,1.6-2.86,2.77-4.87,3.52l7.67,11.21h-8.07l-6.73-10.05h-0.09h-5.34v10.05h-6.91V373.44z M459.81,388.73
		c1.7,0,3.01-0.4,3.92-1.21c0.91-0.81,1.37-1.9,1.37-3.25v-0.09c0-1.5-0.48-2.63-1.43-3.38c-0.96-0.75-2.29-1.13-4-1.13h-6.86v9.06
		H459.81z"></path>
	<path d="M478.34,373.44h6.91v13.72l12.74-13.72h8.34l-12.78,13.32l13.37,18.08h-8.3l-9.74-13.37l-3.63,3.77v9.6h-6.91V373.44z"></path>
</g>
</svg>
